<mxfile host="app.diagrams.net" agent="Mozilla/5.0 (X11; Linux x86_64) AppleWebKit/537.36 (KHTML, like Gecko) Chrome/139.0.0.0 Safari/537.36" version="28.0.9">
  <diagram name="Page-1" id="lAZLCm7qp--HisKFcicl">
    <mxGraphModel dx="1207" dy="1135" grid="1" gridSize="10" guides="1" tooltips="1" connect="1" arrows="1" fold="1" page="1" pageScale="1" pageWidth="850" pageHeight="1100" math="0" shadow="0">
      <root>
        <mxCell id="0" />
        <mxCell id="1" parent="0" />
        <mxCell id="CR_12SMGsqDj9VkZtomQ-58" value="PDA = [b&quot;identity&quot;, creator.key]" style="rounded=0;whiteSpace=wrap;html=1;" vertex="1" parent="1">
          <mxGeometry x="155" y="885" width="210" height="60" as="geometry" />
        </mxCell>
        <mxCell id="3qNgM_V9cod9O4-ocHh8-6" style="edgeStyle=orthogonalEdgeStyle;rounded=0;orthogonalLoop=1;jettySize=auto;html=1;entryX=0;entryY=0.25;entryDx=0;entryDy=0;" edge="1" parent="1" source="3qNgM_V9cod9O4-ocHh8-2" target="3qNgM_V9cod9O4-ocHh8-5">
          <mxGeometry relative="1" as="geometry" />
        </mxCell>
        <mxCell id="3qNgM_V9cod9O4-ocHh8-7" value="1.) Add identity proof" style="edgeLabel;html=1;align=center;verticalAlign=middle;resizable=0;points=[];" vertex="1" connectable="0" parent="3qNgM_V9cod9O4-ocHh8-6">
          <mxGeometry x="-0.0554" y="2" relative="1" as="geometry">
            <mxPoint as="offset" />
          </mxGeometry>
        </mxCell>
        <mxCell id="3qNgM_V9cod9O4-ocHh8-8" style="edgeStyle=orthogonalEdgeStyle;rounded=0;orthogonalLoop=1;jettySize=auto;html=1;entryX=0.026;entryY=0.402;entryDx=0;entryDy=0;entryPerimeter=0;" edge="1" parent="1" source="3qNgM_V9cod9O4-ocHh8-2" target="3qNgM_V9cod9O4-ocHh8-5">
          <mxGeometry relative="1" as="geometry">
            <mxPoint x="630" y="280" as="targetPoint" />
            <Array as="points">
              <mxPoint x="260" y="260" />
              <mxPoint x="260" y="280" />
              <mxPoint x="650" y="280" />
              <mxPoint x="650" y="282" />
            </Array>
          </mxGeometry>
        </mxCell>
        <mxCell id="3qNgM_V9cod9O4-ocHh8-9" value="2.) Create SPL Token" style="edgeLabel;html=1;align=center;verticalAlign=middle;resizable=0;points=[];" vertex="1" connectable="0" parent="3qNgM_V9cod9O4-ocHh8-8">
          <mxGeometry x="0.0739" y="-1" relative="1" as="geometry">
            <mxPoint x="-20" y="-1" as="offset" />
          </mxGeometry>
        </mxCell>
        <mxCell id="3qNgM_V9cod9O4-ocHh8-2" value="&lt;font style=&quot;color: light-dark(rgb(0, 0, 0), rgb(255, 255, 255));&quot;&gt;Creator&lt;/font&gt;" style="shape=umlActor;verticalLabelPosition=bottom;verticalAlign=top;html=1;outlineConnect=0;fillColor=#60a917;fontColor=#ffffff;strokeColor=#2D7600;" vertex="1" parent="1">
          <mxGeometry x="190" y="230" width="30" height="60" as="geometry" />
        </mxCell>
        <mxCell id="3qNgM_V9cod9O4-ocHh8-12" style="edgeStyle=orthogonalEdgeStyle;rounded=0;orthogonalLoop=1;jettySize=auto;html=1;entryX=0;entryY=0.75;entryDx=0;entryDy=0;" edge="1" parent="1" source="3qNgM_V9cod9O4-ocHh8-3" target="3qNgM_V9cod9O4-ocHh8-5">
          <mxGeometry relative="1" as="geometry">
            <Array as="points">
              <mxPoint x="205" y="330" />
              <mxPoint x="630" y="330" />
              <mxPoint x="630" y="328" />
            </Array>
          </mxGeometry>
        </mxCell>
        <mxCell id="3qNgM_V9cod9O4-ocHh8-13" value="3.) Pay SOL to Request creator token" style="edgeLabel;html=1;align=center;verticalAlign=middle;resizable=0;points=[];" vertex="1" connectable="0" parent="3qNgM_V9cod9O4-ocHh8-12">
          <mxGeometry x="0.1881" y="1" relative="1" as="geometry">
            <mxPoint as="offset" />
          </mxGeometry>
        </mxCell>
        <mxCell id="3qNgM_V9cod9O4-ocHh8-3" value="Fans&lt;div&gt;&lt;br&gt;&lt;/div&gt;" style="shape=umlActor;verticalLabelPosition=bottom;verticalAlign=top;html=1;outlineConnect=0;fillColor=#1ba1e2;fontColor=light-dark(#FFFFFF,#FFFFFF);strokeColor=#006EAF;" vertex="1" parent="1">
          <mxGeometry x="190" y="460" width="30" height="60" as="geometry" />
        </mxCell>
        <mxCell id="3qNgM_V9cod9O4-ocHh8-14" style="edgeStyle=orthogonalEdgeStyle;rounded=0;orthogonalLoop=1;jettySize=auto;html=1;entryX=1;entryY=0.3333333333333333;entryDx=0;entryDy=0;entryPerimeter=0;" edge="1" parent="1" source="3qNgM_V9cod9O4-ocHh8-5" target="3qNgM_V9cod9O4-ocHh8-3">
          <mxGeometry relative="1" as="geometry">
            <mxPoint x="670" y="480" as="targetPoint" />
            <Array as="points">
              <mxPoint x="720" y="380" />
              <mxPoint x="220" y="380" />
            </Array>
          </mxGeometry>
        </mxCell>
        <mxCell id="3qNgM_V9cod9O4-ocHh8-15" value="4.) Mint creator token to fan" style="edgeLabel;html=1;align=center;verticalAlign=middle;resizable=0;points=[];" vertex="1" connectable="0" parent="3qNgM_V9cod9O4-ocHh8-14">
          <mxGeometry x="0.3774" y="-1" relative="1" as="geometry">
            <mxPoint x="112" as="offset" />
          </mxGeometry>
        </mxCell>
        <mxCell id="3qNgM_V9cod9O4-ocHh8-5" value="Solana Contract" style="rounded=0;whiteSpace=wrap;html=1;fillColor=#fa6800;fontColor=#000000;strokeColor=#C73500;" vertex="1" parent="1">
          <mxGeometry x="660" y="230" width="140" height="130" as="geometry" />
        </mxCell>
        <mxCell id="3qNgM_V9cod9O4-ocHh8-11" value="User Account" style="rounded=0;whiteSpace=wrap;html=1;" vertex="1" parent="1">
          <mxGeometry x="670" y="160" width="120" height="60" as="geometry" />
        </mxCell>
        <mxCell id="3qNgM_V9cod9O4-ocHh8-17" style="edgeStyle=orthogonalEdgeStyle;rounded=0;orthogonalLoop=1;jettySize=auto;html=1;" edge="1" parent="1" target="3qNgM_V9cod9O4-ocHh8-2">
          <mxGeometry relative="1" as="geometry">
            <mxPoint x="660" y="294.5" as="sourcePoint" />
            <mxPoint x="240" y="280" as="targetPoint" />
          </mxGeometry>
        </mxCell>
        <mxCell id="3qNgM_V9cod9O4-ocHh8-18" value="5.) Unlock tokens after X duration" style="edgeLabel;html=1;align=center;verticalAlign=middle;resizable=0;points=[];" vertex="1" connectable="0" parent="3qNgM_V9cod9O4-ocHh8-17">
          <mxGeometry x="0.0484" y="-4" relative="1" as="geometry">
            <mxPoint as="offset" />
          </mxGeometry>
        </mxCell>
        <mxCell id="3qNgM_V9cod9O4-ocHh8-20" value="&lt;font style=&quot;font-size: 20px;&quot;&gt;On Chain States&lt;/font&gt;" style="text;html=1;align=center;verticalAlign=middle;resizable=0;points=[];autosize=1;strokeColor=none;fillColor=none;" vertex="1" parent="1">
          <mxGeometry x="340" y="629.5" width="170" height="40" as="geometry" />
        </mxCell>
        <mxCell id="CR_12SMGsqDj9VkZtomQ-5" value="creator_token" style="swimlane;fontStyle=0;childLayout=stackLayout;horizontal=1;startSize=30;horizontalStack=0;resizeParent=1;resizeParentMax=0;resizeLast=0;collapsible=1;marginBottom=0;whiteSpace=wrap;html=1;" vertex="1" parent="1">
          <mxGeometry x="475" y="700" width="220" height="270" as="geometry" />
        </mxCell>
        <mxCell id="CR_12SMGsqDj9VkZtomQ-61" value="pub creator: Signer" style="text;strokeColor=none;fillColor=none;align=left;verticalAlign=middle;spacingLeft=4;spacingRight=4;overflow=hidden;points=[[0,0.5],[1,0.5]];portConstraint=eastwest;rotatable=0;whiteSpace=wrap;html=1;" vertex="1" parent="CR_12SMGsqDj9VkZtomQ-5">
          <mxGeometry y="30" width="220" height="30" as="geometry" />
        </mxCell>
        <mxCell id="CR_12SMGsqDj9VkZtomQ-24" value="pub mint: Pubkey&lt;span style=&quot;color: rgba(0, 0, 0, 0); font-family: monospace; font-size: 0px; text-wrap-mode: nowrap;&quot;&gt;%3CmxGraphModel%3E%3Croot%3E%3CmxCell%20id%3D%220%22%2F%3E%3CmxCell%20id%3D%221%22%20parent%3D%220%22%2F%3E%3CmxCell%20id%3D%222%22%20value%3D%22pub%20identity_proof%3A%20Pubkey%22%20style%3D%22text%3BstrokeColor%3Dnone%3BfillColor%3Dnone%3Balign%3Dleft%3BverticalAlign%3Dmiddle%3BspacingLeft%3D4%3BspacingRight%3D4%3Boverflow%3Dhidden%3Bpoints%3D%5B%5B0%2C0.5%5D%2C%5B1%2C0.5%5D%5D%3BportConstraint%3Deastwest%3Brotatable%3D0%3BwhiteSpace%3Dwrap%3Bhtml%3D1%3B%22%20vertex%3D%221%22%20parent%3D%221%22%3E%3CmxGeometry%20x%3D%22240%22%20y%3D%22800%22%20width%3D%22180%22%20height%3D%2230%22%20as%3D%22geometry%22%2F%3E%3C%2FmxCell%3E%3C%2Froot%3E%3C%2FmxGraphModel%3E&lt;/span&gt;" style="text;strokeColor=none;fillColor=none;align=left;verticalAlign=middle;spacingLeft=4;spacingRight=4;overflow=hidden;points=[[0,0.5],[1,0.5]];portConstraint=eastwest;rotatable=0;whiteSpace=wrap;html=1;" vertex="1" parent="CR_12SMGsqDj9VkZtomQ-5">
          <mxGeometry y="60" width="220" height="30" as="geometry" />
        </mxCell>
        <mxCell id="CR_12SMGsqDj9VkZtomQ-103" value="pub vault: Pubkey" style="text;strokeColor=none;fillColor=none;align=left;verticalAlign=middle;spacingLeft=4;spacingRight=4;overflow=hidden;points=[[0,0.5],[1,0.5]];portConstraint=eastwest;rotatable=0;whiteSpace=wrap;html=1;" vertex="1" parent="CR_12SMGsqDj9VkZtomQ-5">
          <mxGeometry y="90" width="220" height="30" as="geometry" />
        </mxCell>
        <mxCell id="CR_12SMGsqDj9VkZtomQ-104" value="pub base_price: u64" style="text;strokeColor=none;fillColor=none;align=left;verticalAlign=middle;spacingLeft=4;spacingRight=4;overflow=hidden;points=[[0,0.5],[1,0.5]];portConstraint=eastwest;rotatable=0;whiteSpace=wrap;html=1;" vertex="1" parent="CR_12SMGsqDj9VkZtomQ-5">
          <mxGeometry y="120" width="220" height="30" as="geometry" />
        </mxCell>
        <mxCell id="CR_12SMGsqDj9VkZtomQ-105" value="pub slope: u64" style="text;strokeColor=none;fillColor=none;align=left;verticalAlign=middle;spacingLeft=4;spacingRight=4;overflow=hidden;points=[[0,0.5],[1,0.5]];portConstraint=eastwest;rotatable=0;whiteSpace=wrap;html=1;" vertex="1" parent="CR_12SMGsqDj9VkZtomQ-5">
          <mxGeometry y="150" width="220" height="30" as="geometry" />
        </mxCell>
        <mxCell id="CR_12SMGsqDj9VkZtomQ-102" value="pub total_supply: u64" style="text;strokeColor=none;fillColor=none;align=left;verticalAlign=middle;spacingLeft=4;spacingRight=4;overflow=hidden;points=[[0,0.5],[1,0.5]];portConstraint=eastwest;rotatable=0;whiteSpace=wrap;html=1;" vertex="1" parent="CR_12SMGsqDj9VkZtomQ-5">
          <mxGeometry y="180" width="220" height="30" as="geometry" />
        </mxCell>
        <mxCell id="CR_12SMGsqDj9VkZtomQ-26" value="pub created_at: i64" style="text;strokeColor=none;fillColor=none;align=left;verticalAlign=middle;spacingLeft=4;spacingRight=4;overflow=hidden;points=[[0,0.5],[1,0.5]];portConstraint=eastwest;rotatable=0;whiteSpace=wrap;html=1;" vertex="1" parent="CR_12SMGsqDj9VkZtomQ-5">
          <mxGeometry y="210" width="220" height="30" as="geometry" />
        </mxCell>
        <mxCell id="CR_12SMGsqDj9VkZtomQ-27" value="pub bump: u8" style="text;strokeColor=none;fillColor=none;align=left;verticalAlign=middle;spacingLeft=4;spacingRight=4;overflow=hidden;points=[[0,0.5],[1,0.5]];portConstraint=eastwest;rotatable=0;whiteSpace=wrap;html=1;" vertex="1" parent="CR_12SMGsqDj9VkZtomQ-5">
          <mxGeometry y="240" width="220" height="30" as="geometry" />
        </mxCell>
        <mxCell id="CR_12SMGsqDj9VkZtomQ-55" style="edgeStyle=orthogonalEdgeStyle;rounded=0;orthogonalLoop=1;jettySize=auto;html=1;entryX=0;entryY=0.5;entryDx=0;entryDy=0;exitX=1.011;exitY=0.131;exitDx=0;exitDy=0;exitPerimeter=0;" edge="1" parent="1" source="CR_12SMGsqDj9VkZtomQ-9">
          <mxGeometry relative="1" as="geometry">
            <mxPoint x="475" y="745" as="targetPoint" />
          </mxGeometry>
        </mxCell>
        <mxCell id="CR_12SMGsqDj9VkZtomQ-9" value="indentity_proof" style="swimlane;fontStyle=0;childLayout=stackLayout;horizontal=1;startSize=30;horizontalStack=0;resizeParent=1;resizeParentMax=0;resizeLast=0;collapsible=1;marginBottom=0;whiteSpace=wrap;html=1;" vertex="1" parent="1">
          <mxGeometry x="175" y="725" width="170" height="150" as="geometry" />
        </mxCell>
        <mxCell id="CR_12SMGsqDj9VkZtomQ-10" value="pub creator_wallet: Pubkey" style="text;strokeColor=none;fillColor=none;align=left;verticalAlign=middle;spacingLeft=4;spacingRight=4;overflow=hidden;points=[[0,0.5],[1,0.5]];portConstraint=eastwest;rotatable=0;whiteSpace=wrap;html=1;" vertex="1" parent="CR_12SMGsqDj9VkZtomQ-9">
          <mxGeometry y="30" width="170" height="30" as="geometry" />
        </mxCell>
        <mxCell id="CR_12SMGsqDj9VkZtomQ-11" value="pub creator_name: u32" style="text;strokeColor=none;fillColor=none;align=left;verticalAlign=middle;spacingLeft=4;spacingRight=4;overflow=hidden;points=[[0,0.5],[1,0.5]];portConstraint=eastwest;rotatable=0;whiteSpace=wrap;html=1;" vertex="1" parent="CR_12SMGsqDj9VkZtomQ-9">
          <mxGeometry y="60" width="170" height="30" as="geometry" />
        </mxCell>
        <mxCell id="CR_12SMGsqDj9VkZtomQ-12" value="pub proof_url: u64" style="text;strokeColor=none;fillColor=none;align=left;verticalAlign=middle;spacingLeft=4;spacingRight=4;overflow=hidden;points=[[0,0.5],[1,0.5]];portConstraint=eastwest;rotatable=0;whiteSpace=wrap;html=1;" vertex="1" parent="CR_12SMGsqDj9VkZtomQ-9">
          <mxGeometry y="90" width="170" height="30" as="geometry" />
        </mxCell>
        <mxCell id="CR_12SMGsqDj9VkZtomQ-28" value="pub bump: u8" style="text;strokeColor=none;fillColor=none;align=left;verticalAlign=middle;spacingLeft=4;spacingRight=4;overflow=hidden;points=[[0,0.5],[1,0.5]];portConstraint=eastwest;rotatable=0;whiteSpace=wrap;html=1;" vertex="1" parent="CR_12SMGsqDj9VkZtomQ-9">
          <mxGeometry y="120" width="170" height="30" as="geometry" />
        </mxCell>
        <mxCell id="CR_12SMGsqDj9VkZtomQ-73" value="" style="edgeStyle=orthogonalEdgeStyle;rounded=0;orthogonalLoop=1;jettySize=auto;html=1;" edge="1" parent="1" source="CR_12SMGsqDj9VkZtomQ-34" target="CR_12SMGsqDj9VkZtomQ-54">
          <mxGeometry relative="1" as="geometry" />
        </mxCell>
        <mxCell id="CR_12SMGsqDj9VkZtomQ-34" value="&lt;font style=&quot;color: light-dark(rgb(0, 0, 0), rgb(255, 255, 255));&quot;&gt;Creator&lt;/font&gt;&lt;div&gt;&lt;br&gt;&lt;/div&gt;" style="shape=umlActor;verticalLabelPosition=bottom;verticalAlign=top;html=1;outlineConnect=0;fillColor=#60a917;fontColor=#ffffff;strokeColor=#2D7600;" vertex="1" parent="1">
          <mxGeometry x="1152.5" y="170" width="30" height="60" as="geometry" />
        </mxCell>
        <mxCell id="CR_12SMGsqDj9VkZtomQ-75" value="" style="edgeStyle=orthogonalEdgeStyle;rounded=0;orthogonalLoop=1;jettySize=auto;html=1;" edge="1" parent="1" source="CR_12SMGsqDj9VkZtomQ-54" target="CR_12SMGsqDj9VkZtomQ-74">
          <mxGeometry relative="1" as="geometry" />
        </mxCell>
        <mxCell id="CR_12SMGsqDj9VkZtomQ-54" value="&lt;span style=&quot;text-wrap-mode: nowrap;&quot;&gt;&lt;font&gt;create_creator_profile()&lt;/font&gt;&lt;/span&gt;" style="rounded=0;whiteSpace=wrap;html=1;fillColor=#dae8fc;strokeColor=#6c8ebf;" vertex="1" parent="1">
          <mxGeometry x="1090" y="330" width="155" height="80" as="geometry" />
        </mxCell>
        <mxCell id="CR_12SMGsqDj9VkZtomQ-59" value="&lt;span style=&quot;font-size: 16px;&quot;&gt;create_creator_profile(&lt;/span&gt;&lt;span style=&quot;font-size: 16px;&quot;&gt;)&lt;/span&gt;" style="text;html=1;align=center;verticalAlign=middle;resizable=0;points=[];autosize=1;strokeColor=none;fillColor=none;" vertex="1" parent="1">
          <mxGeometry x="952.5" y="40" width="190" height="30" as="geometry" />
        </mxCell>
        <mxCell id="CR_12SMGsqDj9VkZtomQ-64" value="indentity_proof" style="swimlane;fontStyle=0;childLayout=stackLayout;horizontal=1;startSize=30;horizontalStack=0;resizeParent=1;resizeParentMax=0;resizeLast=0;collapsible=1;marginBottom=0;whiteSpace=wrap;html=1;" vertex="1" parent="1">
          <mxGeometry x="1340" y="270" width="170" height="150" as="geometry" />
        </mxCell>
        <mxCell id="CR_12SMGsqDj9VkZtomQ-65" value="pub creator_wallet: Pubkey" style="text;strokeColor=none;fillColor=none;align=left;verticalAlign=middle;spacingLeft=4;spacingRight=4;overflow=hidden;points=[[0,0.5],[1,0.5]];portConstraint=eastwest;rotatable=0;whiteSpace=wrap;html=1;" vertex="1" parent="CR_12SMGsqDj9VkZtomQ-64">
          <mxGeometry y="30" width="170" height="30" as="geometry" />
        </mxCell>
        <mxCell id="CR_12SMGsqDj9VkZtomQ-66" value="pub creator_name: u32" style="text;strokeColor=none;fillColor=none;align=left;verticalAlign=middle;spacingLeft=4;spacingRight=4;overflow=hidden;points=[[0,0.5],[1,0.5]];portConstraint=eastwest;rotatable=0;whiteSpace=wrap;html=1;" vertex="1" parent="CR_12SMGsqDj9VkZtomQ-64">
          <mxGeometry y="60" width="170" height="30" as="geometry" />
        </mxCell>
        <mxCell id="CR_12SMGsqDj9VkZtomQ-67" value="pub proof_url: u64" style="text;strokeColor=none;fillColor=none;align=left;verticalAlign=middle;spacingLeft=4;spacingRight=4;overflow=hidden;points=[[0,0.5],[1,0.5]];portConstraint=eastwest;rotatable=0;whiteSpace=wrap;html=1;" vertex="1" parent="CR_12SMGsqDj9VkZtomQ-64">
          <mxGeometry y="90" width="170" height="30" as="geometry" />
        </mxCell>
        <mxCell id="CR_12SMGsqDj9VkZtomQ-68" value="pub bump: u8" style="text;strokeColor=none;fillColor=none;align=left;verticalAlign=middle;spacingLeft=4;spacingRight=4;overflow=hidden;points=[[0,0.5],[1,0.5]];portConstraint=eastwest;rotatable=0;whiteSpace=wrap;html=1;" vertex="1" parent="CR_12SMGsqDj9VkZtomQ-64">
          <mxGeometry y="120" width="170" height="30" as="geometry" />
        </mxCell>
        <mxCell id="CR_12SMGsqDj9VkZtomQ-69" style="edgeStyle=orthogonalEdgeStyle;rounded=0;orthogonalLoop=1;jettySize=auto;html=1;entryX=0.001;entryY=0.127;entryDx=0;entryDy=0;entryPerimeter=0;dashed=1;" edge="1" parent="1" source="CR_12SMGsqDj9VkZtomQ-54" target="CR_12SMGsqDj9VkZtomQ-64">
          <mxGeometry relative="1" as="geometry" />
        </mxCell>
        <mxCell id="CR_12SMGsqDj9VkZtomQ-70" value="Creates PDA" style="edgeLabel;html=1;align=center;verticalAlign=middle;resizable=0;points=[];" vertex="1" connectable="0" parent="CR_12SMGsqDj9VkZtomQ-69">
          <mxGeometry x="-0.0075" y="1" relative="1" as="geometry">
            <mxPoint as="offset" />
          </mxGeometry>
        </mxCell>
        <mxCell id="CR_12SMGsqDj9VkZtomQ-71" value="&lt;span style=&quot;font-size: 16px;&quot;&gt;create_creator_token(&lt;/span&gt;&lt;span style=&quot;font-size: 16px; background-color: transparent;&quot;&gt;decimals: u8,&lt;br&gt;&lt;/span&gt;&lt;span style=&quot;font-size: 16px; background-color: transparent;&quot;&gt;&amp;nbsp; &amp;nbsp; &amp;nbsp; &amp;nbsp; initial_supply: u64&lt;/span&gt;&lt;span style=&quot;font-size: 16px;&quot;&gt;)&lt;/span&gt;" style="text;html=1;align=center;verticalAlign=middle;resizable=0;points=[];autosize=1;strokeColor=none;fillColor=none;" vertex="1" parent="1">
          <mxGeometry x="1755" y="30" width="270" height="50" as="geometry" />
        </mxCell>
        <mxCell id="CR_12SMGsqDj9VkZtomQ-72" value="PDA = [b&quot;identity&quot;, creator_key]" style="rounded=0;whiteSpace=wrap;html=1;" vertex="1" parent="1">
          <mxGeometry x="1320" y="440" width="210" height="60" as="geometry" />
        </mxCell>
        <mxCell id="CR_12SMGsqDj9VkZtomQ-74" value="" style="shape=sumEllipse;perimeter=ellipsePerimeter;whiteSpace=wrap;html=1;backgroundOutline=1;" vertex="1" parent="1">
          <mxGeometry x="1149" y="520" width="37" height="37" as="geometry" />
        </mxCell>
        <mxCell id="CR_12SMGsqDj9VkZtomQ-77" value="The creator can come and create their profile before creating their token&lt;div&gt;&lt;/div&gt;&lt;div&gt;&lt;br&gt;&lt;/div&gt;&lt;div&gt;Identity proof PDA will be created with high level state like :&amp;nbsp;&lt;/div&gt;&lt;div&gt;&lt;ol&gt;&lt;li&gt;storing address of an creator for access controls&lt;/li&gt;&lt;li&gt;proof_url which fans can access to validate the token creator, eg. it can point to a video&amp;nbsp;&lt;/li&gt;&lt;li&gt;And the bump used for creation of identity_proof Pda.&lt;/li&gt;&lt;/ol&gt;&lt;/div&gt;" style="rounded=0;whiteSpace=wrap;html=1;align=left;" vertex="1" parent="1">
          <mxGeometry x="1030" y="724" width="520" height="206" as="geometry" />
        </mxCell>
        <mxCell id="CR_12SMGsqDj9VkZtomQ-92" style="edgeStyle=orthogonalEdgeStyle;rounded=0;orthogonalLoop=1;jettySize=auto;html=1;entryX=1;entryY=0.5;entryDx=0;entryDy=0;" edge="1" parent="1" source="CR_12SMGsqDj9VkZtomQ-78" target="CR_12SMGsqDj9VkZtomQ-112">
          <mxGeometry relative="1" as="geometry" />
        </mxCell>
        <mxCell id="CR_12SMGsqDj9VkZtomQ-78" value="&lt;font style=&quot;color: light-dark(rgb(0, 0, 0), rgb(255, 255, 255));&quot;&gt;Creator&lt;/font&gt;&lt;div&gt;&lt;br&gt;&lt;/div&gt;" style="shape=umlActor;verticalLabelPosition=bottom;verticalAlign=top;html=1;outlineConnect=0;fillColor=#60a917;fontColor=#ffffff;strokeColor=#2D7600;" vertex="1" parent="1">
          <mxGeometry x="2042.5" y="70" width="30" height="60" as="geometry" />
        </mxCell>
        <mxCell id="CR_12SMGsqDj9VkZtomQ-80" style="edgeStyle=orthogonalEdgeStyle;rounded=0;orthogonalLoop=1;jettySize=auto;html=1;" edge="1" parent="1" source="CR_12SMGsqDj9VkZtomQ-79">
          <mxGeometry relative="1" as="geometry">
            <mxPoint x="2057.5" y="580" as="targetPoint" />
          </mxGeometry>
        </mxCell>
        <mxCell id="CR_12SMGsqDj9VkZtomQ-79" value="&lt;span style=&quot;text-wrap-mode: nowrap;&quot;&gt;&lt;font&gt;create_creator_profile()&lt;/font&gt;&lt;/span&gt;" style="rounded=0;whiteSpace=wrap;html=1;fillColor=#dae8fc;strokeColor=#6c8ebf;" vertex="1" parent="1">
          <mxGeometry x="1980" y="395" width="155" height="80" as="geometry" />
        </mxCell>
        <mxCell id="CR_12SMGsqDj9VkZtomQ-84" style="edgeStyle=orthogonalEdgeStyle;rounded=0;orthogonalLoop=1;jettySize=auto;html=1;entryX=1;entryY=0.5;entryDx=0;entryDy=0;" edge="1" parent="1" source="CR_12SMGsqDj9VkZtomQ-83" target="CR_12SMGsqDj9VkZtomQ-86">
          <mxGeometry relative="1" as="geometry">
            <mxPoint x="1830" y="620" as="targetPoint" />
          </mxGeometry>
        </mxCell>
        <mxCell id="CR_12SMGsqDj9VkZtomQ-90" style="edgeStyle=orthogonalEdgeStyle;rounded=0;orthogonalLoop=1;jettySize=auto;html=1;entryX=0;entryY=0.5;entryDx=0;entryDy=0;" edge="1" parent="1" source="CR_12SMGsqDj9VkZtomQ-83" target="CR_12SMGsqDj9VkZtomQ-89">
          <mxGeometry relative="1" as="geometry" />
        </mxCell>
        <mxCell id="CR_12SMGsqDj9VkZtomQ-83" value="Checks identity_proof of creator" style="rhombus;whiteSpace=wrap;html=1;fillColor=#e1d5e7;strokeColor=#9673a6;" vertex="1" parent="1">
          <mxGeometry x="1961.25" y="580" width="192.5" height="80" as="geometry" />
        </mxCell>
        <mxCell id="CR_12SMGsqDj9VkZtomQ-87" style="edgeStyle=orthogonalEdgeStyle;rounded=0;orthogonalLoop=1;jettySize=auto;html=1;" edge="1" parent="1" source="CR_12SMGsqDj9VkZtomQ-86">
          <mxGeometry relative="1" as="geometry">
            <mxPoint x="1770" y="510" as="targetPoint" />
          </mxGeometry>
        </mxCell>
        <mxCell id="CR_12SMGsqDj9VkZtomQ-86" value="Fail" style="rhombus;whiteSpace=wrap;html=1;" vertex="1" parent="1">
          <mxGeometry x="1710" y="620" width="120" height="80" as="geometry" />
        </mxCell>
        <mxCell id="CR_12SMGsqDj9VkZtomQ-88" value="" style="shape=sumEllipse;perimeter=ellipsePerimeter;whiteSpace=wrap;html=1;backgroundOutline=1;" vertex="1" parent="1">
          <mxGeometry x="1751.5" y="478" width="37" height="37" as="geometry" />
        </mxCell>
        <mxCell id="CR_12SMGsqDj9VkZtomQ-91" style="edgeStyle=orthogonalEdgeStyle;rounded=0;orthogonalLoop=1;jettySize=auto;html=1;entryX=0.5;entryY=0;entryDx=0;entryDy=0;" edge="1" parent="1" source="CR_12SMGsqDj9VkZtomQ-89" target="CR_12SMGsqDj9VkZtomQ-118">
          <mxGeometry relative="1" as="geometry">
            <mxPoint x="2300" y="510" as="targetPoint" />
          </mxGeometry>
        </mxCell>
        <mxCell id="CR_12SMGsqDj9VkZtomQ-121" value="Initializes creator token on chain&lt;br&gt;using the given parameters" style="edgeLabel;html=1;align=center;verticalAlign=middle;resizable=0;points=[];" vertex="1" connectable="0" parent="CR_12SMGsqDj9VkZtomQ-91">
          <mxGeometry x="-0.2667" y="4" relative="1" as="geometry">
            <mxPoint as="offset" />
          </mxGeometry>
        </mxCell>
        <mxCell id="CR_12SMGsqDj9VkZtomQ-89" value="Pass" style="rhombus;whiteSpace=wrap;html=1;" vertex="1" parent="1">
          <mxGeometry x="2240" y="430" width="120" height="80" as="geometry" />
        </mxCell>
        <mxCell id="CR_12SMGsqDj9VkZtomQ-106" value="PDA = [b&quot;creator_token&quot;, identity_proof.key]" style="rounded=0;whiteSpace=wrap;html=1;" vertex="1" parent="1">
          <mxGeometry x="475" y="980" width="220" height="60" as="geometry" />
        </mxCell>
        <mxCell id="CR_12SMGsqDj9VkZtomQ-108" value="creator_token" style="swimlane;fontStyle=0;childLayout=stackLayout;horizontal=1;startSize=30;horizontalStack=0;resizeParent=1;resizeParentMax=0;resizeLast=0;collapsible=1;marginBottom=0;whiteSpace=wrap;html=1;" vertex="1" parent="1">
          <mxGeometry x="1730" y="100" width="220" height="270" as="geometry" />
        </mxCell>
        <mxCell id="CR_12SMGsqDj9VkZtomQ-109" value="pub creator: Signer" style="text;strokeColor=none;fillColor=none;align=left;verticalAlign=middle;spacingLeft=4;spacingRight=4;overflow=hidden;points=[[0,0.5],[1,0.5]];portConstraint=eastwest;rotatable=0;whiteSpace=wrap;html=1;" vertex="1" parent="CR_12SMGsqDj9VkZtomQ-108">
          <mxGeometry y="30" width="220" height="30" as="geometry" />
        </mxCell>
        <mxCell id="CR_12SMGsqDj9VkZtomQ-110" value="pub mint: Pubkey&lt;span style=&quot;color: rgba(0, 0, 0, 0); font-family: monospace; font-size: 0px; text-wrap-mode: nowrap;&quot;&gt;%3CmxGraphModel%3E%3Croot%3E%3CmxCell%20id%3D%220%22%2F%3E%3CmxCell%20id%3D%221%22%20parent%3D%220%22%2F%3E%3CmxCell%20id%3D%222%22%20value%3D%22pub%20identity_proof%3A%20Pubkey%22%20style%3D%22text%3BstrokeColor%3Dnone%3BfillColor%3Dnone%3Balign%3Dleft%3BverticalAlign%3Dmiddle%3BspacingLeft%3D4%3BspacingRight%3D4%3Boverflow%3Dhidden%3Bpoints%3D%5B%5B0%2C0.5%5D%2C%5B1%2C0.5%5D%5D%3BportConstraint%3Deastwest%3Brotatable%3D0%3BwhiteSpace%3Dwrap%3Bhtml%3D1%3B%22%20vertex%3D%221%22%20parent%3D%221%22%3E%3CmxGeometry%20x%3D%22240%22%20y%3D%22800%22%20width%3D%22180%22%20height%3D%2230%22%20as%3D%22geometry%22%2F%3E%3C%2FmxCell%3E%3C%2Froot%3E%3C%2FmxGraphModel%3E&lt;/span&gt;" style="text;strokeColor=none;fillColor=none;align=left;verticalAlign=middle;spacingLeft=4;spacingRight=4;overflow=hidden;points=[[0,0.5],[1,0.5]];portConstraint=eastwest;rotatable=0;whiteSpace=wrap;html=1;" vertex="1" parent="CR_12SMGsqDj9VkZtomQ-108">
          <mxGeometry y="60" width="220" height="30" as="geometry" />
        </mxCell>
        <mxCell id="CR_12SMGsqDj9VkZtomQ-111" value="pub vault: Pubkey" style="text;strokeColor=none;fillColor=none;align=left;verticalAlign=middle;spacingLeft=4;spacingRight=4;overflow=hidden;points=[[0,0.5],[1,0.5]];portConstraint=eastwest;rotatable=0;whiteSpace=wrap;html=1;" vertex="1" parent="CR_12SMGsqDj9VkZtomQ-108">
          <mxGeometry y="90" width="220" height="30" as="geometry" />
        </mxCell>
        <mxCell id="CR_12SMGsqDj9VkZtomQ-112" value="pub base_price: u64" style="text;strokeColor=none;fillColor=none;align=left;verticalAlign=middle;spacingLeft=4;spacingRight=4;overflow=hidden;points=[[0,0.5],[1,0.5]];portConstraint=eastwest;rotatable=0;whiteSpace=wrap;html=1;" vertex="1" parent="CR_12SMGsqDj9VkZtomQ-108">
          <mxGeometry y="120" width="220" height="30" as="geometry" />
        </mxCell>
        <mxCell id="CR_12SMGsqDj9VkZtomQ-113" value="pub slope: u64" style="text;strokeColor=none;fillColor=none;align=left;verticalAlign=middle;spacingLeft=4;spacingRight=4;overflow=hidden;points=[[0,0.5],[1,0.5]];portConstraint=eastwest;rotatable=0;whiteSpace=wrap;html=1;" vertex="1" parent="CR_12SMGsqDj9VkZtomQ-108">
          <mxGeometry y="150" width="220" height="30" as="geometry" />
        </mxCell>
        <mxCell id="CR_12SMGsqDj9VkZtomQ-114" value="pub total_supply: u64" style="text;strokeColor=none;fillColor=none;align=left;verticalAlign=middle;spacingLeft=4;spacingRight=4;overflow=hidden;points=[[0,0.5],[1,0.5]];portConstraint=eastwest;rotatable=0;whiteSpace=wrap;html=1;" vertex="1" parent="CR_12SMGsqDj9VkZtomQ-108">
          <mxGeometry y="180" width="220" height="30" as="geometry" />
        </mxCell>
        <mxCell id="CR_12SMGsqDj9VkZtomQ-115" value="pub created_at: i64" style="text;strokeColor=none;fillColor=none;align=left;verticalAlign=middle;spacingLeft=4;spacingRight=4;overflow=hidden;points=[[0,0.5],[1,0.5]];portConstraint=eastwest;rotatable=0;whiteSpace=wrap;html=1;" vertex="1" parent="CR_12SMGsqDj9VkZtomQ-108">
          <mxGeometry y="210" width="220" height="30" as="geometry" />
        </mxCell>
        <mxCell id="CR_12SMGsqDj9VkZtomQ-116" value="pub bump: u8" style="text;strokeColor=none;fillColor=none;align=left;verticalAlign=middle;spacingLeft=4;spacingRight=4;overflow=hidden;points=[[0,0.5],[1,0.5]];portConstraint=eastwest;rotatable=0;whiteSpace=wrap;html=1;" vertex="1" parent="CR_12SMGsqDj9VkZtomQ-108">
          <mxGeometry y="240" width="220" height="30" as="geometry" />
        </mxCell>
        <mxCell id="CR_12SMGsqDj9VkZtomQ-117" value="PDA = [b&quot;creator_token&quot;, identity_proof.key]" style="rounded=0;whiteSpace=wrap;html=1;" vertex="1" parent="1">
          <mxGeometry x="1730" y="380" width="220" height="60" as="geometry" />
        </mxCell>
        <mxCell id="CR_12SMGsqDj9VkZtomQ-119" style="edgeStyle=orthogonalEdgeStyle;rounded=0;orthogonalLoop=1;jettySize=auto;html=1;entryX=1;entryY=0.3333333333333333;entryDx=0;entryDy=0;entryPerimeter=0;exitX=1;exitY=0.5;exitDx=0;exitDy=0;" edge="1" parent="1" source="CR_12SMGsqDj9VkZtomQ-89" target="CR_12SMGsqDj9VkZtomQ-78">
          <mxGeometry relative="1" as="geometry">
            <mxPoint x="2110" y="-250" as="targetPoint" />
            <mxPoint x="2337.5" y="350" as="sourcePoint" />
            <Array as="points">
              <mxPoint x="2440" y="470" />
              <mxPoint x="2440" y="90" />
            </Array>
          </mxGeometry>
        </mxCell>
        <mxCell id="CR_12SMGsqDj9VkZtomQ-120" value="Mints set tokens to Creator" style="edgeLabel;html=1;align=center;verticalAlign=middle;resizable=0;points=[];" vertex="1" connectable="0" parent="CR_12SMGsqDj9VkZtomQ-119">
          <mxGeometry x="-0.2322" y="1" relative="1" as="geometry">
            <mxPoint as="offset" />
          </mxGeometry>
        </mxCell>
        <mxCell id="CR_12SMGsqDj9VkZtomQ-118" value="creator token" style="rounded=0;whiteSpace=wrap;html=1;fillColor=#f8cecc;strokeColor=#b85450;" vertex="1" parent="1">
          <mxGeometry x="2240" y="649.5" width="120" height="60" as="geometry" />
        </mxCell>
        <mxCell id="CR_12SMGsqDj9VkZtomQ-122" style="edgeStyle=orthogonalEdgeStyle;rounded=0;orthogonalLoop=1;jettySize=auto;html=1;entryX=0.5;entryY=0;entryDx=0;entryDy=0;" edge="1" parent="1" source="CR_12SMGsqDj9VkZtomQ-114" target="CR_12SMGsqDj9VkZtomQ-79">
          <mxGeometry relative="1" as="geometry" />
        </mxCell>
        <mxCell id="CR_12SMGsqDj9VkZtomQ-123" value="Blockchain" style="shape=cylinder3;whiteSpace=wrap;html=1;boundedLbl=1;backgroundOutline=1;size=15;" vertex="1" parent="1">
          <mxGeometry x="2260" y="770" width="80" height="80" as="geometry" />
        </mxCell>
        <mxCell id="CR_12SMGsqDj9VkZtomQ-124" style="edgeStyle=orthogonalEdgeStyle;rounded=0;orthogonalLoop=1;jettySize=auto;html=1;entryX=0.5;entryY=0;entryDx=0;entryDy=0;entryPerimeter=0;" edge="1" parent="1" source="CR_12SMGsqDj9VkZtomQ-118" target="CR_12SMGsqDj9VkZtomQ-123">
          <mxGeometry relative="1" as="geometry" />
        </mxCell>
        <mxCell id="CR_12SMGsqDj9VkZtomQ-125" value="&lt;span style=&quot;font-size: 16px;&quot;&gt;buy_token(lamports&lt;/span&gt;&lt;span style=&quot;font-size: 16px; background-color: transparent;&quot;&gt;: u64&lt;/span&gt;&lt;span style=&quot;font-size: 16px;&quot;&gt;)&lt;/span&gt;" style="text;html=1;align=center;verticalAlign=middle;resizable=0;points=[];autosize=1;strokeColor=none;fillColor=none;" vertex="1" parent="1">
          <mxGeometry x="2615" y="50" width="200" height="30" as="geometry" />
        </mxCell>
        <mxCell id="CR_12SMGsqDj9VkZtomQ-126" value="&lt;span style=&quot;font-size: 16px;&quot;&gt;sell_token(token&lt;/span&gt;&lt;span style=&quot;font-size: 16px; background-color: transparent;&quot;&gt;: u64&lt;/span&gt;&lt;span style=&quot;font-size: 16px;&quot;&gt;)&lt;/span&gt;" style="text;html=1;align=center;verticalAlign=middle;resizable=0;points=[];autosize=1;strokeColor=none;fillColor=none;" vertex="1" parent="1">
          <mxGeometry x="3470" y="50" width="180" height="30" as="geometry" />
        </mxCell>
        <mxCell id="CR_12SMGsqDj9VkZtomQ-129" style="edgeStyle=orthogonalEdgeStyle;rounded=0;orthogonalLoop=1;jettySize=auto;html=1;entryX=0.5;entryY=0;entryDx=0;entryDy=0;" edge="1" parent="1" source="CR_12SMGsqDj9VkZtomQ-127" target="CR_12SMGsqDj9VkZtomQ-128">
          <mxGeometry relative="1" as="geometry" />
        </mxCell>
        <mxCell id="CR_12SMGsqDj9VkZtomQ-130" value="Send lamports&amp;nbsp;&lt;br&gt;and&lt;br&gt;token address of the token" style="edgeLabel;html=1;align=center;verticalAlign=middle;resizable=0;points=[];" vertex="1" connectable="0" parent="CR_12SMGsqDj9VkZtomQ-129">
          <mxGeometry x="0.168" y="1" relative="1" as="geometry">
            <mxPoint as="offset" />
          </mxGeometry>
        </mxCell>
        <mxCell id="CR_12SMGsqDj9VkZtomQ-127" value="&lt;div&gt;&lt;font style=&quot;color: light-dark(rgb(255, 255, 255), rgb(255, 243, 243));&quot;&gt;Fan / Creator&lt;/font&gt;&lt;/div&gt;" style="shape=umlActor;verticalLabelPosition=bottom;verticalAlign=top;html=1;outlineConnect=0;fillColor=#60a917;fontColor=#ffffff;strokeColor=#2D7600;" vertex="1" parent="1">
          <mxGeometry x="2945" y="120" width="30" height="60" as="geometry" />
        </mxCell>
        <mxCell id="CR_12SMGsqDj9VkZtomQ-131" style="edgeStyle=orthogonalEdgeStyle;rounded=0;orthogonalLoop=1;jettySize=auto;html=1;" edge="1" parent="1" source="CR_12SMGsqDj9VkZtomQ-128" target="CR_12SMGsqDj9VkZtomQ-132">
          <mxGeometry relative="1" as="geometry">
            <mxPoint x="2967.5" y="544" as="targetPoint" />
          </mxGeometry>
        </mxCell>
        <mxCell id="CR_12SMGsqDj9VkZtomQ-136" style="edgeStyle=orthogonalEdgeStyle;rounded=0;orthogonalLoop=1;jettySize=auto;html=1;entryX=1;entryY=0.5;entryDx=0;entryDy=0;dashed=1;" edge="1" parent="1" source="CR_12SMGsqDj9VkZtomQ-128" target="CR_12SMGsqDj9VkZtomQ-135">
          <mxGeometry relative="1" as="geometry" />
        </mxCell>
        <mxCell id="CR_12SMGsqDj9VkZtomQ-128" value="&lt;span style=&quot;text-wrap-mode: nowrap;&quot;&gt;&lt;font&gt;buy_token(lamports)&lt;/font&gt;&lt;/span&gt;" style="rounded=0;whiteSpace=wrap;html=1;fillColor=#dae8fc;strokeColor=#6c8ebf;" vertex="1" parent="1">
          <mxGeometry x="2882.5" y="364" width="155" height="80" as="geometry" />
        </mxCell>
        <mxCell id="CR_12SMGsqDj9VkZtomQ-142" style="edgeStyle=orthogonalEdgeStyle;rounded=0;orthogonalLoop=1;jettySize=auto;html=1;entryX=0;entryY=0.5;entryDx=0;entryDy=0;" edge="1" parent="1" source="CR_12SMGsqDj9VkZtomQ-132" target="CR_12SMGsqDj9VkZtomQ-138">
          <mxGeometry relative="1" as="geometry" />
        </mxCell>
        <mxCell id="CR_12SMGsqDj9VkZtomQ-132" value="&lt;span style=&quot;text-wrap-mode: nowrap;&quot;&gt;&lt;font&gt;calculate token price&lt;/font&gt;&lt;/span&gt;" style="rhombus;whiteSpace=wrap;html=1;fillColor=#e1d5e7;strokeColor=#9673a6;" vertex="1" parent="1">
          <mxGeometry x="2882.5" y="549.5" width="155" height="80" as="geometry" />
        </mxCell>
        <mxCell id="CR_12SMGsqDj9VkZtomQ-137" style="edgeStyle=orthogonalEdgeStyle;rounded=0;orthogonalLoop=1;jettySize=auto;html=1;entryX=0;entryY=0.5;entryDx=0;entryDy=0;dashed=1;" edge="1" parent="1" source="CR_12SMGsqDj9VkZtomQ-135" target="CR_12SMGsqDj9VkZtomQ-132">
          <mxGeometry relative="1" as="geometry">
            <Array as="points">
              <mxPoint x="2728" y="590" />
            </Array>
          </mxGeometry>
        </mxCell>
        <mxCell id="CR_12SMGsqDj9VkZtomQ-135" value="Create ATA&lt;br&gt;if user does not have one for the requested token" style="rhombus;whiteSpace=wrap;html=1;" vertex="1" parent="1">
          <mxGeometry x="2622.5" y="319" width="210" height="170" as="geometry" />
        </mxCell>
        <mxCell id="CR_12SMGsqDj9VkZtomQ-138" value="&lt;font style=&quot;color: light-dark(rgb(255, 252, 252), rgb(255, 255, 255));&quot;&gt;Mints creator token equivalent to lamports&lt;br&gt;transferred&lt;/font&gt;" style="whiteSpace=wrap;html=1;aspect=fixed;" vertex="1" parent="1">
          <mxGeometry x="3177.5" y="529.5" width="120" height="120" as="geometry" />
        </mxCell>
        <mxCell id="CR_12SMGsqDj9VkZtomQ-141" style="edgeStyle=orthogonalEdgeStyle;rounded=0;orthogonalLoop=1;jettySize=auto;html=1;entryX=1;entryY=0.3333333333333333;entryDx=0;entryDy=0;entryPerimeter=0;" edge="1" parent="1" source="CR_12SMGsqDj9VkZtomQ-138" target="CR_12SMGsqDj9VkZtomQ-127">
          <mxGeometry relative="1" as="geometry">
            <Array as="points">
              <mxPoint x="3230" y="140" />
            </Array>
          </mxGeometry>
        </mxCell>
        <mxCell id="CR_12SMGsqDj9VkZtomQ-143" value="vault" style="shape=cylinder3;whiteSpace=wrap;html=1;boundedLbl=1;backgroundOutline=1;size=15;" vertex="1" parent="1">
          <mxGeometry x="2930" y="727" width="60" height="80" as="geometry" />
        </mxCell>
        <mxCell id="CR_12SMGsqDj9VkZtomQ-144" style="edgeStyle=orthogonalEdgeStyle;rounded=0;orthogonalLoop=1;jettySize=auto;html=1;entryX=0.5;entryY=0;entryDx=0;entryDy=0;entryPerimeter=0;" edge="1" parent="1" source="CR_12SMGsqDj9VkZtomQ-132" target="CR_12SMGsqDj9VkZtomQ-143">
          <mxGeometry relative="1" as="geometry" />
        </mxCell>
        <mxCell id="CR_12SMGsqDj9VkZtomQ-145" value="Sends received lamports&amp;nbsp;&lt;br&gt;to vault" style="edgeLabel;html=1;align=center;verticalAlign=middle;resizable=0;points=[];" vertex="1" connectable="0" parent="CR_12SMGsqDj9VkZtomQ-144">
          <mxGeometry x="-0.2174" y="1" relative="1" as="geometry">
            <mxPoint as="offset" />
          </mxGeometry>
        </mxCell>
        <mxCell id="CR_12SMGsqDj9VkZtomQ-146" style="edgeStyle=orthogonalEdgeStyle;rounded=0;orthogonalLoop=1;jettySize=auto;html=1;entryX=0.5;entryY=0;entryDx=0;entryDy=0;" edge="1" parent="1" source="CR_12SMGsqDj9VkZtomQ-148" target="CR_12SMGsqDj9VkZtomQ-151">
          <mxGeometry relative="1" as="geometry" />
        </mxCell>
        <mxCell id="CR_12SMGsqDj9VkZtomQ-147" value="Send tokens&amp;nbsp;&lt;br&gt;and&lt;br&gt;token address of the token" style="edgeLabel;html=1;align=center;verticalAlign=middle;resizable=0;points=[];" vertex="1" connectable="0" parent="CR_12SMGsqDj9VkZtomQ-146">
          <mxGeometry x="0.168" y="1" relative="1" as="geometry">
            <mxPoint as="offset" />
          </mxGeometry>
        </mxCell>
        <mxCell id="CR_12SMGsqDj9VkZtomQ-148" value="&lt;div&gt;&lt;font style=&quot;color: light-dark(rgb(255, 255, 255), rgb(255, 243, 243));&quot;&gt;Fan / Creator&lt;/font&gt;&lt;/div&gt;" style="shape=umlActor;verticalLabelPosition=bottom;verticalAlign=top;html=1;outlineConnect=0;fillColor=#60a917;fontColor=#ffffff;strokeColor=#2D7600;" vertex="1" parent="1">
          <mxGeometry x="3782.5" y="110" width="30" height="60" as="geometry" />
        </mxCell>
        <mxCell id="CR_12SMGsqDj9VkZtomQ-164" style="edgeStyle=orthogonalEdgeStyle;rounded=0;orthogonalLoop=1;jettySize=auto;html=1;" edge="1" parent="1" source="CR_12SMGsqDj9VkZtomQ-151">
          <mxGeometry relative="1" as="geometry">
            <mxPoint x="3620" y="437" as="targetPoint" />
          </mxGeometry>
        </mxCell>
        <mxCell id="CR_12SMGsqDj9VkZtomQ-151" value="&lt;span style=&quot;text-wrap-mode: nowrap;&quot;&gt;&lt;font&gt;sell_token(token_amount)&lt;/font&gt;&lt;/span&gt;" style="rounded=0;whiteSpace=wrap;html=1;fillColor=#dae8fc;strokeColor=#6c8ebf;" vertex="1" parent="1">
          <mxGeometry x="3720" y="397" width="155" height="80" as="geometry" />
        </mxCell>
        <mxCell id="CR_12SMGsqDj9VkZtomQ-153" value="&lt;span style=&quot;text-wrap-mode: nowrap;&quot;&gt;&lt;font&gt;calculate token price&lt;/font&gt;&lt;/span&gt;" style="rhombus;whiteSpace=wrap;html=1;fillColor=#e1d5e7;strokeColor=#9673a6;" vertex="1" parent="1">
          <mxGeometry x="3720" y="500" width="155" height="80" as="geometry" />
        </mxCell>
        <mxCell id="CR_12SMGsqDj9VkZtomQ-156" value="Sends back lamports" style="whiteSpace=wrap;html=1;aspect=fixed;" vertex="1" parent="1">
          <mxGeometry x="4010" y="380" width="120" height="120" as="geometry" />
        </mxCell>
        <mxCell id="CR_12SMGsqDj9VkZtomQ-157" style="edgeStyle=orthogonalEdgeStyle;rounded=0;orthogonalLoop=1;jettySize=auto;html=1;entryX=1;entryY=0.3333333333333333;entryDx=0;entryDy=0;entryPerimeter=0;" edge="1" parent="1" source="CR_12SMGsqDj9VkZtomQ-156" target="CR_12SMGsqDj9VkZtomQ-148">
          <mxGeometry relative="1" as="geometry">
            <Array as="points">
              <mxPoint x="4067.5" y="130" />
            </Array>
          </mxGeometry>
        </mxCell>
        <mxCell id="CR_12SMGsqDj9VkZtomQ-161" style="edgeStyle=orthogonalEdgeStyle;rounded=0;orthogonalLoop=1;jettySize=auto;html=1;entryX=0.5;entryY=1;entryDx=0;entryDy=0;" edge="1" parent="1" source="CR_12SMGsqDj9VkZtomQ-158" target="CR_12SMGsqDj9VkZtomQ-156">
          <mxGeometry relative="1" as="geometry" />
        </mxCell>
        <mxCell id="CR_12SMGsqDj9VkZtomQ-162" style="edgeStyle=orthogonalEdgeStyle;rounded=0;orthogonalLoop=1;jettySize=auto;html=1;" edge="1" parent="1" source="CR_12SMGsqDj9VkZtomQ-158" target="CR_12SMGsqDj9VkZtomQ-163">
          <mxGeometry relative="1" as="geometry">
            <mxPoint x="3797.5" y="855" as="targetPoint" />
          </mxGeometry>
        </mxCell>
        <mxCell id="CR_12SMGsqDj9VkZtomQ-158" value="vault" style="shape=cylinder3;whiteSpace=wrap;html=1;boundedLbl=1;backgroundOutline=1;size=15;" vertex="1" parent="1">
          <mxGeometry x="3767.5" y="680" width="60" height="80" as="geometry" />
        </mxCell>
        <mxCell id="CR_12SMGsqDj9VkZtomQ-159" style="edgeStyle=orthogonalEdgeStyle;rounded=0;orthogonalLoop=1;jettySize=auto;html=1;entryX=0.5;entryY=0;entryDx=0;entryDy=0;entryPerimeter=0;" edge="1" parent="1" source="CR_12SMGsqDj9VkZtomQ-153" target="CR_12SMGsqDj9VkZtomQ-158">
          <mxGeometry relative="1" as="geometry" />
        </mxCell>
        <mxCell id="CR_12SMGsqDj9VkZtomQ-160" value="requests required lamports&lt;br&gt;to exchange with tokens" style="edgeLabel;html=1;align=center;verticalAlign=middle;resizable=0;points=[];" vertex="1" connectable="0" parent="CR_12SMGsqDj9VkZtomQ-159">
          <mxGeometry x="-0.2174" y="1" relative="1" as="geometry">
            <mxPoint as="offset" />
          </mxGeometry>
        </mxCell>
        <mxCell id="CR_12SMGsqDj9VkZtomQ-163" value="burn given tokens" style="rounded=0;whiteSpace=wrap;html=1;fillColor=#e51400;strokeColor=#B20000;fontColor=#ffffff;" vertex="1" parent="1">
          <mxGeometry x="3737.5" y="800" width="120" height="60" as="geometry" />
        </mxCell>
        <mxCell id="CR_12SMGsqDj9VkZtomQ-166" style="edgeStyle=orthogonalEdgeStyle;rounded=0;orthogonalLoop=1;jettySize=auto;html=1;entryX=0.5;entryY=0;entryDx=0;entryDy=0;" edge="1" parent="1" source="CR_12SMGsqDj9VkZtomQ-165" target="CR_12SMGsqDj9VkZtomQ-167">
          <mxGeometry relative="1" as="geometry">
            <mxPoint x="3440" y="640" as="targetPoint" />
          </mxGeometry>
        </mxCell>
        <mxCell id="CR_12SMGsqDj9VkZtomQ-168" value="No" style="edgeLabel;html=1;align=center;verticalAlign=middle;resizable=0;points=[];" vertex="1" connectable="0" parent="CR_12SMGsqDj9VkZtomQ-166">
          <mxGeometry x="-0.0086" y="4" relative="1" as="geometry">
            <mxPoint as="offset" />
          </mxGeometry>
        </mxCell>
        <mxCell id="CR_12SMGsqDj9VkZtomQ-169" style="edgeStyle=orthogonalEdgeStyle;rounded=0;orthogonalLoop=1;jettySize=auto;html=1;entryX=0;entryY=0.5;entryDx=0;entryDy=0;" edge="1" parent="1" source="CR_12SMGsqDj9VkZtomQ-165" target="CR_12SMGsqDj9VkZtomQ-153">
          <mxGeometry relative="1" as="geometry">
            <Array as="points">
              <mxPoint x="3560" y="540" />
            </Array>
          </mxGeometry>
        </mxCell>
        <mxCell id="CR_12SMGsqDj9VkZtomQ-170" value="Yes" style="edgeLabel;html=1;align=center;verticalAlign=middle;resizable=0;points=[];" vertex="1" connectable="0" parent="CR_12SMGsqDj9VkZtomQ-169">
          <mxGeometry x="-0.576" y="2" relative="1" as="geometry">
            <mxPoint y="1" as="offset" />
          </mxGeometry>
        </mxCell>
        <mxCell id="CR_12SMGsqDj9VkZtomQ-165" value="&lt;span style=&quot;text-wrap-mode: nowrap;&quot;&gt;&lt;font&gt;check if user has enough&amp;nbsp;&lt;br&gt;tokens&lt;/font&gt;&lt;/span&gt;" style="rhombus;whiteSpace=wrap;html=1;fillColor=#e1d5e7;strokeColor=#9673a6;" vertex="1" parent="1">
          <mxGeometry x="3467.5" y="383.5" width="185" height="107" as="geometry" />
        </mxCell>
        <mxCell id="CR_12SMGsqDj9VkZtomQ-167" value="" style="shape=sumEllipse;perimeter=ellipsePerimeter;whiteSpace=wrap;html=1;backgroundOutline=1;" vertex="1" parent="1">
          <mxGeometry x="3410" y="590" width="37" height="40" as="geometry" />
        </mxCell>
        <mxCell id="CR_12SMGsqDj9VkZtomQ-171" value="Existing creators who has their can come and create their profile before creating their token&lt;div&gt;&lt;/div&gt;&lt;div&gt;&lt;br&gt;&lt;/div&gt;&lt;div&gt;Creator will submit the necessary fields&amp;nbsp;&lt;/div&gt;&lt;div&gt;The identity_proof is checked and only then the token is made on the blockchain&lt;/div&gt;&lt;div&gt;The creator can set the initial mint amount that they will be receiving after the token in minted&lt;/div&gt;" style="rounded=0;whiteSpace=wrap;html=1;align=left;" vertex="1" parent="1">
          <mxGeometry x="1780" y="860" width="520" height="206" as="geometry" />
        </mxCell>
        <mxCell id="CR_12SMGsqDj9VkZtomQ-172" value="The Fan / Creator can buy creators token in exchange for SOL&lt;div&gt;&lt;br&gt;&lt;/div&gt;&lt;div&gt;Once the token price is calculated, the tokens are transferred to the fan/creator and the SOL is stored in the contract&#39;s vault&lt;/div&gt;" style="rounded=0;whiteSpace=wrap;html=1;align=left;" vertex="1" parent="1">
          <mxGeometry x="2715" y="857" width="520" height="206" as="geometry" />
        </mxCell>
        <mxCell id="CR_12SMGsqDj9VkZtomQ-173" value="The Fan / Creator can sell creators token in exchange for SOL&lt;div&gt;&lt;br&gt;&lt;/div&gt;&lt;div&gt;Once the token price is calculated, the SOL are transferred to the fan/creator and the token is received to the contract and then burned.&lt;/div&gt;" style="rounded=0;whiteSpace=wrap;html=1;align=left;" vertex="1" parent="1">
          <mxGeometry x="3530" y="875" width="520" height="206" as="geometry" />
        </mxCell>
        <mxCell id="CR_12SMGsqDj9VkZtomQ-174" value="Vault" style="shape=cylinder3;whiteSpace=wrap;html=1;boundedLbl=1;backgroundOutline=1;size=15;" vertex="1" parent="1">
          <mxGeometry x="2040" y="727" width="60" height="80" as="geometry" />
        </mxCell>
        <mxCell id="CR_12SMGsqDj9VkZtomQ-175" style="edgeStyle=orthogonalEdgeStyle;rounded=0;orthogonalLoop=1;jettySize=auto;html=1;entryX=0.5;entryY=0;entryDx=0;entryDy=0;entryPerimeter=0;" edge="1" parent="1" source="CR_12SMGsqDj9VkZtomQ-118" target="CR_12SMGsqDj9VkZtomQ-174">
          <mxGeometry relative="1" as="geometry" />
        </mxCell>
        <mxCell id="CR_12SMGsqDj9VkZtomQ-176" value="Create" style="edgeLabel;html=1;align=center;verticalAlign=middle;resizable=0;points=[];" vertex="1" connectable="0" parent="CR_12SMGsqDj9VkZtomQ-175">
          <mxGeometry x="-0.246" relative="1" as="geometry">
            <mxPoint as="offset" />
          </mxGeometry>
        </mxCell>
      </root>
    </mxGraphModel>
  </diagram>
</mxfile>
